<?xml version="1.0" standalone="no"?>
<!DOCTYPE svg PUBLIC "-//W3C//DTD SVG 20010904//EN"
 "http://www.w3.org/TR/2001/REC-SVG-20010904/DTD/svg10.dtd">
<svg version="1.0" xmlns="http://www.w3.org/2000/svg"
 width="512.000000pt" height="512.000000pt" viewBox="0 0 512.000000 512.000000"
 preserveAspectRatio="xMidYMid meet">
<metadata>
Created by potrace 1.14, written by Peter Selinger 2001-2017
</metadata>
<g transform="translate(0.000000,512.000000) scale(0.100000,-0.100000)"
fill="#000000" stroke="none">
<path d="M0 3950 l0 -1170 1020 0 1020 0 0 122 0 123 -704 705 c-387 388 -707
715 -711 727 -4 15 1 29 16 44 l22 22 1901 -6 1901 -6 18 -22 c9 -12 17 -26
17 -32 0 -7 -315 -327 -700 -712 l-700 -700 0 -133 0 -132 384 0 385 0 15 -22
c14 -20 16 -85 16 -508 0 -423 -2 -488 -16 -508 l-15 -22 -385 0 -384 0 0 -67
0 -68 -487 -488 c-269 -268 -498 -490 -511 -494 -14 -3 -30 1 -42 12 -19 18
-20 35 -20 562 l0 543 -1020 0 -1020 0 0 -860 0 -860 2560 0 2560 0 0 2560 0
2560 -2560 0 -2560 0 0 -1170z"/>
<path d="M1475 3740 l670 -670 3 -145 3 -145 422 2 422 3 5 158 5 157 655 655
655 655 -1755 0 -1755 0 670 -670z"/>
<path d="M0 2250 l0 -430 1895 0 1895 0 0 430 0 430 -1895 0 -1895 0 0 -430z
m533 196 c26 -17 27 -20 12 -37 -15 -16 -20 -16 -50 -3 -68 28 -135 8 -154
-47 -17 -48 -14 -194 4 -229 26 -51 82 -64 149 -36 25 10 37 11 45 3 20 -20
12 -35 -29 -51 -85 -34 -174 -12 -218 54 -22 33 -23 43 -20 155 3 134 16 166
80 199 43 22 142 17 181 -8z m314 9 c58 -24 67 -35 47 -56 -15 -17 -17 -17
-52 2 -73 39 -162 17 -162 -40 0 -37 10 -44 100 -76 96 -34 130 -68 130 -129
0 -78 -61 -126 -160 -126 -49 0 -109 18 -137 42 -11 9 -11 14 3 29 15 16 19
17 44 4 68 -35 157 -27 180 16 27 49 3 79 -84 109 -76 26 -123 56 -132 83 -19
60 5 119 59 142 43 19 119 19 164 0z m233 -170 c29 -96 56 -175 60 -175 3 0
29 78 56 173 l50 172 32 3 c18 2 32 0 32 -5 0 -4 -29 -100 -64 -213 l-63 -205
-43 0 -44 0 -68 210 c-37 116 -68 211 -68 213 0 1 15 2 33 2 l33 0 54 -175z
m730 150 c0 -25 0 -25 -95 -25 l-96 0 3 -67 3 -68 78 -3 c74 -3 77 -4 77 -27
0 -24 -2 -25 -80 -25 l-80 0 0 -96 0 -95 -27 3 -28 3 -3 213 -2 212 125 0 125
0 0 -25z m230 0 c0 -20 -5 -25 -25 -25 l-25 0 0 -160 0 -160 25 0 c21 0 25 -5
25 -30 l0 -30 -85 0 -85 0 0 30 c0 25 4 30 25 30 l25 0 0 160 0 160 -25 0
c-20 0 -25 5 -25 25 0 25 1 25 85 25 84 0 85 0 85 -25z m180 -160 l0 -185 90
0 90 0 0 -30 0 -30 -120 0 -120 0 0 215 0 215 30 0 30 0 0 -185z m478 163 c-3
-21 -9 -23 -65 -26 l-63 -3 0 -190 0 -190 -27 3 -28 3 -3 188 -2 187 -60 0
c-57 0 -60 1 -60 25 l0 25 156 0 155 0 -3 -22z m322 -3 c0 -25 -1 -25 -90 -25
l-90 0 0 -65 0 -65 85 0 c84 0 85 0 85 -25 0 -25 -1 -25 -85 -25 l-85 0 0 -70
0 -70 90 0 90 0 0 -30 0 -30 -120 0 -120 0 0 215 0 215 120 0 120 0 0 -25z
m348 5 c37 -23 52 -54 52 -112 0 -35 -6 -47 -39 -78 l-39 -37 44 -79 c24 -44
44 -85 44 -91 0 -8 -12 -13 -29 -13 -27 0 -34 8 -78 90 -47 89 -48 90 -85 90
l-37 0 -3 -87 -3 -88 -30 0 -30 0 -3 213 -2 212 102 0 c85 0 109 -4 136 -20z"/>
<path d="M3200 2334 l0 -76 60 4 c71 5 94 23 94 72 0 55 -26 76 -96 76 l-58 0
0 -76z"/>
<path d="M2150 1253 l0 -468 425 425 426 425 -3 40 -3 40 -422 3 -423 2 0
-467z"/>
</g>
</svg>
